# xmcd CD database file
#
# Track frame offsets:
#	150
#	28056
#	49510
#	79614
#	120142
#	142226
#	161481
#	189219
#	211365
#
# Disc length: 3383 seconds
#
# Revision: 0
# Processed by: cddbd v1.5.1PL0 Copyright (c) Steve Scherf et al.
# Submitted via: CDex 1.60beta1-cs1
#
DISCID=6d0d3509
DTITLE=Naturescapes - Memories of Florida
DYEAR=1900
DGENRE=New Age
TTITLE0=Memories of Florida
TTITLE1=Morning at Captive Island
TTITLE2=Exploring the Coral Reef
TTITLE3=Storm on the Keys
TTITLE4=Silver Springs Excursion
TTITLE5=Gulf Coast Breezes
TTITLE6=Dolphin Serenade
TTITLE7=Moonlit Beach
TTITLE8=Jazz in the Everglades
EXTD=
EXTT0=
EXTT1=
EXTT2=
EXTT3=
EXTT4=
EXTT5=
EXTT6=
EXTT7=
EXTT8=
PLAYORDER=
